<svg width="1811" height="985" viewBox="0 0 1811 985" fill="none" xmlns="http://www.w3.org/2000/svg">
<path d="M0.371338 566.077C108.871 586.577 353.571 575.877 464.371 369.077C575.171 162.277 925.371 97.5774 962.871 84.0771C1000.37 70.5769 1342.47 57.3769 1476.87 14.5769C1611.27 -28.2231 1653.87 48.4102 1658.37 92.0769C1666.37 169.41 1562.97 318.177 1085.37 294.577C607.771 270.977 644.705 433.744 722.871 518.077C822.371 661.077 1043.77 932.177 1133.37 872.577C1245.37 798.077 1188.87 590.077 1322.37 643.577C1455.87 697.077 1543.37 731.577 1556.87 827.577C1567.67 904.377 1730.37 962.577 1810.37 982.077" stroke="url(#paint0_linear_221_223)" stroke-width="4"/>
<defs>
<linearGradient id="paint0_linear_221_223" x1="905.371" y1="-3.92285" x2="905.371" y2="982.077" gradientUnits="userSpaceOnUse">
<stop stop-color="#8DCDF7"/>
<stop offset="1" stop-color="#309BD5"/>
</linearGradient>
</defs>
</svg>
